PathFileType	3	(X/Y/Z)	D:\minhoCalibration\240510\subject1_KPNP\preferred\preferred01.trc
DataRate	CameraRate	NumFrames	NumMarkers	Units	OrigDataRate	OrigDataStartFrame	OrigNumFrames
200.0	200.0	24	10	mm	200.0	319	227	
Frame#	Time	Left_Ankle_Outer1			Left_Ankle_Inner1			Left_Knee_Outer1			Left_Knee_Inner1			Left_Wrist1			Right_Wrist1			Right_Knee_Inner1			Right_Knee_Outer1			Right_Ankle_Inner1			Right_Ankle_Outer1			
		X1	Y1	Z1	X2	Y2	Z2	X3	Y3	Z3	X4	Y4	Z4	X5	Y5	Z5	X6	Y6	Z6	X7	Y7	Z7	X8	Y8	Z8	X9	Y9	Z9	X10	Y10	Z10	
319	1.585	-477.90189	123.87868	-588.97937	-527.97778	130.09058	-555.93005	-442.20557	575.48553	-488.46664	-550.31732	530.53094	-492.19077	-508.51035	978.01471	-667.18976	-742.94324	981.50519	-931.32867	-705.94733	506.24872	-918.81836	-740.34326	545.16467	-1017.4041	-618.16278	113.39134	-1086.3477	-655.39557	120.74565	-1172.4895
320	1.59	-481.02716	123.42909	-587.17004	-530.35669	130.06882	-553.82019	-441.10822	574.67975	-486.0632	-549.6153	530.44495	-488.9075	-507.08307	976.61646	-665.67133	-741.78961	981.25183	-929.60437	-705.09607	505.65933	-917.73181	-739.76062	544.867	-1016.3283	-617.83838	112.96835	-1085.9982	-655.10358	120.81899	-1172.1383
321	1.595	-483.7468	123.30264	-586.00616	-532.80377	129.82889	-551.76569	-440.10623	573.82068	-483.59634	-548.95984	530.22748	-485.66901	-505.66519	975.1676	-664.12311	-740.88702	980.50201	-927.48193	-704.22156	505.07187	-916.57587	-739.06415	544.26111	-1014.953	-617.51215	112.58231	-1085.7474	-654.83771	120.73479	-1171.8087
322	1.6	-486.92099	122.86107	-584.16632	-535.29242	129.68292	-549.40198	-439.05042	572.92621	-481.14975	-548.31348	529.89661	-482.29187	-504.32013	973.61255	-662.51801	-739.92731	980.07245	-925.26599	-703.2937	504.48163	-915.49579	-738.4649	543.86169	-1013.7634	-617.07135	112.25901	-1085.5496	-654.57007	120.49574	-1171.4906
323	1.605	-489.73148	122.68639	-582.92621	-537.74481	129.50223	-547.26404	-438.14655	571.9751	-478.6333	-547.71045	529.65051	-478.88431	-502.93781	971.97424	-660.88116	-738.81305	979.39856	-923.87073	-702.44519	503.84122	-914.39716	-737.96851	543.56042	-1012.6727	-616.79102	111.92747	-1085.2871	-654.31848	120.50654	-1171.2225
324	1.61	-492.71619	122.52059	-581.3717	-540.25061	129.21007	-545.15173	-437.7453	570.77521	-476.23276	-547.21027	529.31256	-475.41464	-501.50043	970.31458	-659.24237	-737.84436	979.09338	-920.93518	-701.5744	503.17108	-913.29565	-737.44537	542.96704	-1011.3034	-616.51276	111.61546	-1085.024	-654.09387	120.41138	-1170.9604
325	1.615	-495.78076	122.131	-579.77155	-542.80597	128.88393	-542.96228	-436.88412	569.71924	-473.60526	-546.77661	528.93958	-471.93051	-500.18042	968.53467	-657.49066	-736.80908	978.57068	-918.66669	-700.82776	502.51871	-912.216	-737.11383	542.62793	-1010.1796	-616.10065	111.27437	-1084.8839	-653.88568	120.39137	-1170.7069
326	1.62	-498.80743	121.91579	-578.20227	-545.34021	128.66928	-540.77014	-435.75311	568.77692	-470.83286	-546.33478	528.39038	-468.39667	-498.89359	966.70007	-655.73657	-735.6803	978.14899	-916.65381	-700.18335	501.79761	-911.07642	-736.80908	542.15393	-1008.7665	-615.97156	111.04682	-1084.5873	-653.68408	120.27715	-1170.4774
327	1.625	-501.87582	121.63232	-576.72815	-547.8609	128.35271	-538.67975	-435.40515	567.48706	-468.23288	-546.09106	527.85809	-464.7923	-497.67953	964.80945	-653.94623	-734.89893	977.42981	-914.05096	-699.7038	501.08194	-909.66577	-736.62012	541.64917	-1007.5086	-615.62054	110.67775	-1084.5216	-653.59424	120.22826	-1170.2305
328	1.63	-504.95792	121.21898	-574.99292	-550.36304	127.99657	-536.76825	-434.77155	566.29877	-465.38257	-545.78778	527.30304	-461.12103	-496.50729	962.87915	-652.09918	-733.88049	976.79163	-911.80481	-699.37048	500.34439	-908.4682	-736.59973	541.11127	-1006.0445	-615.48651	110.45456	-1084.3134	-653.50311	120.14375	-1169.985
329	1.635	-507.76736	121.11502	-573.96777	-552.83398	127.68981	-535.01093	-434.22998	565.16833	-462.48633	-545.3869	526.48907	-457.81787	-495.39108	960.86884	-650.16736	-732.99634	976.12646	-909.50946	-699.23883	499.53485	-907.052	-736.79053	540.62177	-1004.5577	-615.29736	110.25594	-1084.2109	-653.44147	120.15868	-1169.7542
330	1.64	-510.53549	120.95663	-572.78131	-555.08954	127.36744	-533.36047	-433.71414	564.03009	-459.49512	-545.28125	525.98163	-454.07547	-494.18091	958.81158	-648.18329	-732.13965	975.42175	-906.9917	-699.21112	498.71301	-905.51654	-737.07288	540.08142	-1002.9186	-615.17749	110.12019	-1084.0621	-653.47626	120.27612	-1169.5209
331	1.645	-513.22937	120.56409	-571.35748	-557.31024	127.18884	-531.90967	-433.34647	562.85339	-456.34201	-545.15851	525.3335	-450.41583	-492.99445	956.72681	-646.11182	-731.18591	975.07483	-904.30469	-699.35779	497.8844	-903.71594	-737.49707	539.57526	-1001.1591	-615.08398	110.15248	-1083.9106	-653.54205	120.48753	-1169.2494
332	1.65	-515.63245	120.54068	-570.35406	-559.23047	126.71954	-530.64008	-432.96173	561.69543	-453.1246	-545.19135	524.71252	-446.65054	-491.75085	954.68036	-643.9339	-730.27124	974.30017	-902.00104	-699.62762	497.01859	-901.91705	-738.09381	539.08588	-999.19446	-615.01166	110.15594	-1083.6973	-653.59717	120.78564	-1168.9117
333	1.655	-517.84015	120.42021	-569.39392	-561.30865	126.7047	-529.64801	-432.65659	560.62506	-449.8053	-545.18512	524.00226	-443.24271	-490.40518	952.71857	-641.78601	-729.52985	973.78491	-898.73328	-700.41272	496.57599	-899.64886	-738.88269	538.55737	-997.13373	-614.96442	110.13857	-1083.507	-653.7959	121.19193	-1168.5974
334	1.66	-519.63013	120.54778	-568.88422	-563.09534	126.56249	-528.68805	-432.43103	559.51514	-446.46182	-545.19415	523.24536	-439.79865	-488.93655	950.78717	-639.49872	-728.80127	973.25024	-895.55957	-700.96515	495.4079	-897.73212	-739.79492	538.00964	-994.93475	-615.01764	110.16788	-1083.281	-653.99219	121.54295	-1168.2382
335	1.665	-521.36047	120.48547	-567.83746	-564.61652	126.40722	-527.99371	-432.25589	558.53387	-443.01477	-545.24329	522.54425	-436.48361	-487.44794	948.95013	-637.19043	-728.17365	972.42285	-892.32916	-702.00824	494.61145	-895.23547	-740.83704	537.41046	-992.62738	-615.13702	110.42893	-1082.9188	-654.20959	121.8709	-1167.8417
336	1.67	-522.54871	120.5936	-567.52863	-565.7724	126.21817	-527.4552	-432.13446	557.51215	-439.57034	-545.12915	521.75116	-433.58105	-485.80261	947.23846	-634.89136	-727.65906	971.51031	-889.00073	-703.30695	493.87448	-892.45471	-742.06506	536.83374	-990.03247	-615.26117	110.58252	-1082.5769	-654.37231	122.7974	-1167.4971
337	1.675	-523.55133	120.3836	-566.66223	-566.57507	125.9144	-527.17352	-432.07852	556.54388	-436.08997	-545.30713	521.12012	-430.23526	-484.00711	945.67206	-632.46869	-727.65808	970.9317	-884.22253	-704.82104	492.82596	-889.61646	-743.46332	536.15912	-987.22809	-615.47821	110.78462	-1082.1346	-654.77997	123.05953	-1166.8818
338	1.68	-523.86639	120.39368	-566.2851	-567.33929	125.88671	-527.4082	-432.05814	555.61841	-432.5965	-545.30914	520.3476	-427.46533	-482.02756	944.22266	-630.07635	-726.62701	970.17334	-881.22296	-706.20465	491.71533	-886.76312	-744.98578	535.45709	-984.21698	-615.75378	111.19472	-1081.6157	-655.14081	123.89993	-1166.3606
339	1.685	-523.77246	120.42313	-566.01923	-567.4751	125.7426	-527.5376	-432.05072	554.64502	-429.18948	-545.3606	519.59888	-424.53781	-479.97205	942.93994	-627.63861	-726.40192	969.21948	-876.87024	-708.30609	490.56702	-883.1109	-746.63892	534.75922	-980.83228	-615.99774	111.52264	-1081.1238	-655.44031	125.12302	-1165.8151
340	1.69	-523.19849	120.39488	-565.85059	-567.08057	125.61379	-527.65759	-432.0452	553.67841	-425.78488	-545.54932	518.94525	-421.63287	-477.7572	941.81354	-625.09155	-726.05005	968.51984	-872.69733	-710.38861	489.34286	-879.38928	-748.51117	534.11853	-977.19342	-616.35724	112.22823	-1080.3018	-655.67792	126.35732	-1164.9449
341	1.695	-522.03735	120.36113	-565.73688	-566.18823	125.36043	-528.00928	-432.06693	552.67487	-422.32053	-545.59332	518.19257	-418.82138	-475.37537	940.86731	-622.53687	-725.57312	967.94965	-868.34125	-712.79596	488.23575	-875.19269	-750.44391	533.46198	-973.16315	-616.83649	113.03925	-1079.4127	-656.0683	127.49489	-1163.7987
342	1.7	-519.95837	120.56935	-566.09875	-564.79901	125.05996	-528.65515	-431.81873	551.80737	-418.8226	-545.61316	517.45807	-416.29584	-472.80878	940.11835	-619.93842	-725.49481	966.71509	-863.05048	-715.30554	487.09189	-870.54126	-752.69769	532.95123	-968.80212	-617.33435	114.13039	-1078.1659	-656.29352	129.38693	-1162.7823
